<svg xmlns="http://www.w3.org/2000/svg" xmlns:xlink="http://www.w3.org/1999/xlink" width="300" zoomAndPan="magnify" viewBox="20 5 250 250" height="140" preserveAspectRatio="xMidYMid meet" version="1.0"><defs><g/><clipPath id="acb6f5c36e"><path d="M 38.25 120.847656 L 134.25 120.847656 L 134.25 216.847656 L 38.25 216.847656 Z M 38.25 120.847656 " clip-rule="nonzero"/></clipPath><clipPath id="544ebef77d"><path d="M 37.5 138.097656 L 37.5 199.726562 C 37.5 209.667969 45.558594 217.726562 55.5 217.726562 L 117.128906 217.726562 C 127.070312 217.726562 135.128906 209.667969 135.128906 199.726562 L 135.128906 138.097656 C 135.128906 128.15625 127.070312 120.097656 117.128906 120.097656 L 55.5 120.097656 C 45.558594 120.097656 37.5 128.15625 37.5 138.097656 Z M 37.5 138.097656 " clip-rule="nonzero"/></clipPath><clipPath id="9dfcd6e1e1"><path d="M 56.398438 120.996094 L 116.230469 120.996094 C 126.171875 120.996094 134.230469 129.054688 134.230469 138.996094 L 134.230469 198.828125 C 134.230469 208.769531 126.171875 216.828125 116.230469 216.828125 L 56.398438 216.828125 C 46.457031 216.828125 38.398438 208.769531 38.398438 198.828125 L 38.398438 138.996094 C 38.398438 129.054688 46.457031 120.996094 56.398438 120.996094 Z M 56.398438 120.996094 " clip-rule="nonzero"/></clipPath><clipPath id="24376daa22"><path d="M 37.5 120.097656 L 135 120.097656 L 135 217.597656 L 37.5 217.597656 Z M 37.5 120.097656 " clip-rule="nonzero"/></clipPath><clipPath id="a9fa921e22"><path d="M 37.5 138.097656 L 37.5 199.726562 C 37.5 209.667969 45.558594 217.726562 55.5 217.726562 L 117.128906 217.726562 C 127.070312 217.726562 135.128906 209.667969 135.128906 199.726562 L 135.128906 138.097656 C 135.128906 128.15625 127.070312 120.097656 117.128906 120.097656 L 55.5 120.097656 C 45.558594 120.097656 37.5 128.15625 37.5 138.097656 Z M 37.5 138.097656 " clip-rule="nonzero"/></clipPath><clipPath id="e6139b9c1e"><path d="M 37.5 138.097656 L 37.5 199.726562 C 37.5 209.667969 45.558594 217.726562 55.5 217.726562 L 117.128906 217.726562 C 127.070312 217.726562 135.128906 209.667969 135.128906 199.726562 L 135.128906 138.097656 C 135.128906 128.15625 127.070312 120.097656 117.128906 120.097656 L 55.5 120.097656 C 45.558594 120.097656 37.5 128.15625 37.5 138.097656 Z M 37.5 138.097656 " clip-rule="nonzero"/></clipPath></defs><g clip-path="url(#acb6f5c36e)"><g clip-path="url(#544ebef77d)"><g clip-path="url(#9dfcd6e1e1)"><path fill="#ffffff" d="M 131.875 207.601562 C 131.875 211.390625 128.792969 214.472656 125.003906 214.472656 L 47.625 214.472656 C 43.835938 214.472656 40.753906 211.390625 40.753906 207.601562 L 40.753906 130.222656 C 40.753906 126.433594 43.835938 123.351562 47.625 123.351562 L 125.003906 123.351562 C 128.792969 123.351562 131.875 126.433594 131.875 130.222656 Z M 125.003906 120.097656 L 47.625 120.097656 C 42.042969 120.097656 37.5 124.640625 37.5 130.222656 L 37.5 207.601562 C 37.5 213.183594 42.042969 217.726562 47.625 217.726562 L 125.003906 217.726562 C 130.585938 217.726562 135.128906 213.183594 135.128906 207.601562 L 135.128906 130.222656 C 135.128906 124.640625 130.585938 120.097656 125.003906 120.097656 " fill-opacity="1" fill-rule="nonzero"/></g></g></g><g clip-path="url(#24376daa22)"><g clip-path="url(#a9fa921e22)"><g clip-path="url(#e6139b9c1e)"><path stroke-linecap="butt" transform="matrix(0.75, 0, 0, 0.75, 37.500002, 120.097682)" fill="none" stroke-linejoin="miter" d="M -0.00000271667 23.999968 L -0.00000271667 106.171848 C -0.00000271667 119.427057 10.74479 130.17185 23.999999 130.17185 L 106.171879 130.17185 C 119.427088 130.17185 130.171881 119.427057 130.171881 106.171848 L 130.171881 23.999968 C 130.171881 10.744758 119.427088 -0.0000339514 106.171879 -0.0000339514 L 23.999999 -0.0000339514 C 10.74479 -0.0000339514 -0.00000271667 10.744758 -0.00000271667 23.999968 Z M -0.00000271667 23.999968 " stroke="#ffffff" stroke-width="14" stroke-opacity="1" stroke-miterlimit="4"/></g></g></g><g fill="#ffffff" fill-opacity="1"><g transform="translate(56.28198, 169.701025)"><g><path d="M 21.140625 -8 L 2.046875 0.34375 L 2.046875 -4.015625 L 15.296875 -9.734375 L 2.046875 -15.421875 L 2.046875 -19.78125 L 21.140625 -11.46875 Z M 21.140625 -8 "/></g></g></g><g fill="#ffffff" fill-opacity="1"><g transform="translate(90.998662, 169.701025)"><g><path d="M 2.046875 -8 L 2.046875 -11.46875 L 21.140625 -19.78125 L 21.140625 -15.421875 L 7.875 -9.734375 L 21.140625 -4.015625 L 21.140625 0.34375 Z M 2.046875 -8 "/></g></g></g><g fill="#ffffff" fill-opacity="1"><g transform="translate(72.061692, 174.626912)"><g><path d="M 28.40625 3.015625 L 28.40625 9.859375 C 28.40625 15.578125 27.050781 19.578125 24.34375 21.859375 C 21.644531 24.140625 18.425781 25.28125 14.6875 25.28125 C 12.082031 25.28125 9.675781 24.789062 7.46875 23.8125 C 5.269531 22.832031 3.472656 21.210938 2.078125 18.953125 C 0.691406 16.703125 0 13.75 0 10.09375 L 0 3.015625 Z M 3.828125 10.546875 C 3.828125 14.109375 4.835938 16.691406 6.859375 18.296875 C 8.878906 19.910156 11.425781 20.71875 14.5 20.71875 C 17.488281 20.71875 19.921875 19.90625 21.796875 18.28125 C 23.679688 16.65625 24.625 14.078125 24.625 10.546875 L 24.625 7.34375 L 3.828125 7.34375 Z M 3.828125 10.546875 "/></g></g></g><g fill="#ffffff" fill-opacity="1"><g transform="translate(149.165035, 174.912807)"><g><path d="M 10.546875 0.34375 C 9.492188 0.34375 8.492188 0.1875 7.546875 -0.125 C 6.597656 -0.4375 5.726562 -0.878906 4.9375 -1.453125 C 4.15625 -2.023438 3.472656 -2.703125 2.890625 -3.484375 C 2.316406 -4.265625 1.875 -5.125 1.5625 -6.0625 C 1.25 -7 1.09375 -7.988281 1.09375 -9.03125 C 1.09375 -10.082031 1.25 -11.078125 1.5625 -12.015625 C 1.875 -12.953125 2.316406 -13.8125 2.890625 -14.59375 C 3.472656 -15.375 4.15625 -16.050781 4.9375 -16.625 C 5.726562 -17.195312 6.597656 -17.640625 7.546875 -17.953125 C 8.492188 -18.265625 9.492188 -18.421875 10.546875 -18.421875 C 11.503906 -18.421875 12.441406 -18.285156 13.359375 -18.015625 C 14.285156 -17.742188 15.140625 -17.347656 15.921875 -16.828125 C 16.703125 -16.304688 17.375 -15.664062 17.9375 -14.90625 C 18.507812 -14.15625 18.914062 -13.300781 19.15625 -12.34375 L 16.765625 -12.34375 C 16.429688 -13.164062 15.957031 -13.867188 15.34375 -14.453125 C 14.726562 -15.035156 14.007812 -15.484375 13.1875 -15.796875 C 12.363281 -16.109375 11.46875 -16.265625 10.5 -16.265625 C 9.519531 -16.265625 8.601562 -16.085938 7.75 -15.734375 C 6.894531 -15.378906 6.140625 -14.875 5.484375 -14.21875 C 4.835938 -13.570312 4.332031 -12.804688 3.96875 -11.921875 C 3.613281 -11.046875 3.4375 -10.082031 3.4375 -9.03125 C 3.4375 -7.96875 3.613281 -6.992188 3.96875 -6.109375 C 4.332031 -5.222656 4.835938 -4.457031 5.484375 -3.8125 C 6.140625 -3.175781 6.894531 -2.679688 7.75 -2.328125 C 8.601562 -1.984375 9.519531 -1.8125 10.5 -1.8125 C 11.519531 -1.8125 12.421875 -1.953125 13.203125 -2.234375 C 13.992188 -2.523438 14.671875 -2.925781 15.234375 -3.4375 C 15.804688 -3.945312 16.257812 -4.535156 16.59375 -5.203125 C 16.9375 -5.878906 17.171875 -6.601562 17.296875 -7.375 L 10.421875 -7.375 L 10.421875 -9.484375 L 19.734375 -9.484375 C 19.734375 -8.128906 19.53125 -6.851562 19.125 -5.65625 C 18.726562 -4.46875 18.132812 -3.421875 17.34375 -2.515625 C 16.5625 -1.617188 15.597656 -0.914062 14.453125 -0.40625 C 13.316406 0.09375 12.015625 0.34375 10.546875 0.34375 Z M 10.546875 0.34375 "/></g></g></g><g fill="#ffffff" fill-opacity="1"><g transform="translate(169.984331, 174.912807)"><g><path d="M 7.984375 0.390625 C 7.085938 0.390625 6.265625 0.257812 5.515625 0 C 4.765625 -0.257812 4.113281 -0.65625 3.5625 -1.1875 C 3.007812 -1.726562 2.578125 -2.421875 2.265625 -3.265625 C 1.960938 -4.109375 1.8125 -5.117188 1.8125 -6.296875 L 1.8125 -13.515625 L 4.078125 -13.515625 L 4.078125 -6.359375 C 4.078125 -4.835938 4.414062 -3.691406 5.09375 -2.921875 C 5.769531 -2.148438 6.726562 -1.765625 7.96875 -1.765625 C 9.207031 -1.765625 10.160156 -2.148438 10.828125 -2.921875 C 11.503906 -3.691406 11.84375 -4.835938 11.84375 -6.359375 L 11.84375 -13.515625 L 14.125 -13.515625 L 14.125 -6.296875 C 14.125 -5.117188 13.972656 -4.109375 13.671875 -3.265625 C 13.367188 -2.421875 12.941406 -1.726562 12.390625 -1.1875 C 11.835938 -0.65625 11.1875 -0.257812 10.4375 0 C 9.6875 0.257812 8.867188 0.390625 7.984375 0.390625 Z M 7.984375 0.390625 "/></g></g></g><g fill="#ffffff" fill-opacity="1"><g transform="translate(185.926797, 174.912807)"><g><path d="M 6.6875 0.390625 C 5.75 0.390625 4.925781 0.257812 4.21875 0 C 3.507812 -0.25 2.921875 -0.585938 2.453125 -1.015625 C 1.984375 -1.441406 1.628906 -1.925781 1.390625 -2.46875 C 1.160156 -3.007812 1.046875 -3.566406 1.046875 -4.140625 L 3.25 -4.140625 C 3.257812 -3.648438 3.394531 -3.203125 3.65625 -2.796875 C 3.925781 -2.390625 4.316406 -2.066406 4.828125 -1.828125 C 5.347656 -1.585938 5.976562 -1.46875 6.71875 -1.46875 C 7.738281 -1.46875 8.507812 -1.664062 9.03125 -2.0625 C 9.550781 -2.46875 9.8125 -3.015625 9.8125 -3.703125 C 9.8125 -4.203125 9.675781 -4.59375 9.40625 -4.875 C 9.132812 -5.164062 8.742188 -5.390625 8.234375 -5.546875 C 7.722656 -5.703125 7.117188 -5.835938 6.421875 -5.953125 C 5.785156 -6.046875 5.179688 -6.175781 4.609375 -6.34375 C 4.046875 -6.519531 3.539062 -6.757812 3.09375 -7.0625 C 2.65625 -7.363281 2.3125 -7.75 2.0625 -8.21875 C 1.8125 -8.6875 1.6875 -9.257812 1.6875 -9.9375 C 1.6875 -10.675781 1.863281 -11.34375 2.21875 -11.9375 C 2.570312 -12.539062 3.109375 -13.019531 3.828125 -13.375 C 4.554688 -13.726562 5.453125 -13.90625 6.515625 -13.90625 C 7.554688 -13.90625 8.46875 -13.726562 9.25 -13.375 C 10.03125 -13.03125 10.632812 -12.550781 11.0625 -11.9375 C 11.5 -11.332031 11.71875 -10.632812 11.71875 -9.84375 L 9.46875 -9.84375 C 9.4375 -10.488281 9.160156 -11.007812 8.640625 -11.40625 C 8.128906 -11.800781 7.421875 -12 6.515625 -12 C 5.929688 -12 5.445312 -11.90625 5.0625 -11.71875 C 4.6875 -11.539062 4.40625 -11.296875 4.21875 -10.984375 C 4.03125 -10.679688 3.9375 -10.351562 3.9375 -10 C 3.9375 -9.570312 4.03125 -9.21875 4.21875 -8.9375 C 4.40625 -8.664062 4.734375 -8.441406 5.203125 -8.265625 C 5.679688 -8.097656 6.34375 -7.945312 7.1875 -7.8125 C 7.800781 -7.707031 8.40625 -7.578125 9 -7.421875 C 9.59375 -7.273438 10.125 -7.054688 10.59375 -6.765625 C 11.0625 -6.484375 11.4375 -6.101562 11.71875 -5.625 C 12 -5.15625 12.140625 -4.550781 12.140625 -3.8125 C 12.140625 -2.894531 11.910156 -2.125 11.453125 -1.5 C 10.992188 -0.875 10.351562 -0.398438 9.53125 -0.078125 C 8.71875 0.234375 7.769531 0.390625 6.6875 0.390625 Z M 6.6875 0.390625 "/></g></g></g><g fill="#ffffff" fill-opacity="1"><g transform="translate(198.993522, 174.912807)"><g><path d="M 9.90625 0 L 7.40625 0 C 6.894531 0 6.382812 -0.0625 5.875 -0.1875 C 5.375 -0.320312 4.914062 -0.566406 4.5 -0.921875 C 4.09375 -1.273438 3.765625 -1.78125 3.515625 -2.4375 C 3.273438 -3.101562 3.15625 -3.960938 3.15625 -5.015625 L 3.15625 -11.515625 L 0.140625 -11.515625 L 0.140625 -13.515625 L 3.15625 -13.515625 L 3.15625 -17.53125 L 5.4375 -17.546875 L 5.4375 -13.515625 L 9.90625 -13.515625 L 9.90625 -11.515625 L 5.4375 -11.515625 L 5.4375 -4.90625 C 5.4375 -4.28125 5.503906 -3.769531 5.640625 -3.375 C 5.773438 -2.976562 5.957031 -2.675781 6.1875 -2.46875 C 6.425781 -2.257812 6.6875 -2.117188 6.96875 -2.046875 C 7.257812 -1.972656 7.554688 -1.9375 7.859375 -1.9375 L 9.90625 -1.9375 Z M 9.90625 0 "/></g></g></g><g fill="#ffffff" fill-opacity="1"><g transform="translate(209.648337, 174.912807)"><g><path d="M 8.078125 0.390625 C 7.078125 0.390625 6.148438 0.207031 5.296875 -0.15625 C 4.441406 -0.53125 3.695312 -1.039062 3.0625 -1.6875 C 2.425781 -2.34375 1.929688 -3.101562 1.578125 -3.96875 C 1.222656 -4.84375 1.046875 -5.773438 1.046875 -6.765625 C 1.046875 -7.753906 1.222656 -8.675781 1.578125 -9.53125 C 1.929688 -10.394531 2.421875 -11.148438 3.046875 -11.796875 C 3.679688 -12.453125 4.425781 -12.96875 5.28125 -13.34375 C 6.132812 -13.71875 7.066406 -13.90625 8.078125 -13.90625 C 9.078125 -13.90625 10.003906 -13.71875 10.859375 -13.34375 C 11.722656 -12.976562 12.472656 -12.46875 13.109375 -11.8125 C 13.742188 -11.164062 14.238281 -10.410156 14.59375 -9.546875 C 14.945312 -8.679688 15.125 -7.753906 15.125 -6.765625 C 15.125 -5.773438 14.945312 -4.84375 14.59375 -3.96875 C 14.238281 -3.101562 13.742188 -2.34375 13.109375 -1.6875 C 12.472656 -1.039062 11.722656 -0.53125 10.859375 -0.15625 C 10.003906 0.207031 9.078125 0.390625 8.078125 0.390625 Z M 8.09375 -1.765625 C 8.769531 -1.765625 9.394531 -1.882812 9.96875 -2.125 C 10.539062 -2.375 11.039062 -2.722656 11.46875 -3.171875 C 11.90625 -3.628906 12.242188 -4.160156 12.484375 -4.765625 C 12.722656 -5.378906 12.84375 -6.046875 12.84375 -6.765625 C 12.84375 -7.472656 12.722656 -8.128906 12.484375 -8.734375 C 12.242188 -9.335938 11.90625 -9.863281 11.46875 -10.3125 C 11.039062 -10.769531 10.539062 -11.125 9.96875 -11.375 C 9.394531 -11.625 8.769531 -11.75 8.09375 -11.75 C 7.425781 -11.75 6.800781 -11.625 6.21875 -11.375 C 5.644531 -11.125 5.140625 -10.769531 4.703125 -10.3125 C 4.273438 -9.863281 3.9375 -9.335938 3.6875 -8.734375 C 3.445312 -8.128906 3.328125 -7.472656 3.328125 -6.765625 C 3.328125 -6.046875 3.445312 -5.378906 3.6875 -4.765625 C 3.9375 -4.160156 4.273438 -3.628906 4.703125 -3.171875 C 5.140625 -2.722656 5.644531 -2.375 6.21875 -2.125 C 6.800781 -1.882812 7.425781 -1.765625 8.09375 -1.765625 Z M 8.09375 -1.765625 "/></g></g></g></svg>