<svg xmlns="http://www.w3.org/2000/svg" xmlns:xlink="http://www.w3.org/1999/xlink" width="250" zoomAndPan="magnify" viewBox="0 0 187.5 112.499997" height="150" preserveAspectRatio="xMidYMid meet" version="1.0"><defs><g/><clipPath id="d239f6cc0e"><path d="M 23 36.5 L 62 36.5 L 62 76 L 23 76 Z M 23 36.5 " clip-rule="nonzero"/></clipPath><clipPath id="bf0f5e9c49"><path d="M 22.101562 46.953125 L 22.101562 65.046875 C 22.101562 71.234375 27.117188 76.25 33.304688 76.25 L 51.398438 76.25 C 57.582031 76.25 62.597656 71.234375 62.597656 65.046875 L 62.597656 46.953125 C 62.597656 43.984375 61.417969 41.132812 59.316406 39.035156 C 57.21875 36.933594 54.367188 35.753906 51.398438 35.753906 L 33.304688 35.753906 C 27.117188 35.753906 22.101562 40.769531 22.101562 46.953125 Z M 22.101562 46.953125 " clip-rule="nonzero"/></clipPath><clipPath id="838b2b2460"><path d="M 34.199219 36.648438 L 50.5 36.648438 C 56.6875 36.648438 61.703125 41.664062 61.703125 47.851562 L 61.703125 64.152344 C 61.703125 70.339844 56.6875 75.351562 50.5 75.351562 L 34.199219 75.351562 C 28.015625 75.351562 23 70.339844 23 64.152344 L 23 47.851562 C 23 41.664062 28.015625 36.648438 34.199219 36.648438 Z M 34.199219 36.648438 " clip-rule="nonzero"/></clipPath><clipPath id="a1eb4ce5a9"><path d="M 22.101562 35.753906 L 62.425781 35.753906 L 62.425781 76.074219 L 22.101562 76.074219 Z M 22.101562 35.753906 " clip-rule="nonzero"/></clipPath><clipPath id="a837e851d5"><path d="M 22.101562 46.953125 L 22.101562 65.046875 C 22.101562 71.234375 27.117188 76.25 33.304688 76.25 L 51.398438 76.25 C 57.582031 76.25 62.597656 71.234375 62.597656 65.046875 L 62.597656 46.953125 C 62.597656 43.984375 61.417969 41.132812 59.316406 39.035156 C 57.21875 36.933594 54.367188 35.753906 51.398438 35.753906 L 33.304688 35.753906 C 27.117188 35.753906 22.101562 40.769531 22.101562 46.953125 Z M 22.101562 46.953125 " clip-rule="nonzero"/></clipPath><clipPath id="fbfa18ddd6"><path d="M 22.101562 46.949219 L 22.101562 65.039062 C 22.101562 71.226562 27.117188 76.238281 33.300781 76.238281 L 51.390625 76.238281 C 57.574219 76.238281 62.585938 71.226562 62.585938 65.039062 L 62.585938 46.949219 C 62.585938 43.980469 61.40625 41.132812 59.308594 39.035156 C 57.207031 36.933594 54.359375 35.753906 51.390625 35.753906 L 33.300781 35.753906 C 27.117188 35.753906 22.101562 40.765625 22.101562 46.949219 Z M 22.101562 46.949219 " clip-rule="nonzero"/></clipPath></defs><g clip-path="url(#d239f6cc0e)"><g clip-path="url(#bf0f5e9c49)"><g clip-path="url(#838b2b2460)"><path fill="#ffde59" d="M 61.238281 72.039062 C 61.238281 73.609375 59.960938 74.886719 58.390625 74.886719 L 26.300781 74.886719 C 24.730469 74.886719 23.453125 73.609375 23.453125 72.039062 L 23.453125 39.953125 C 23.453125 38.382812 24.730469 37.101562 26.300781 37.101562 L 58.390625 37.101562 C 59.960938 37.101562 61.238281 38.382812 61.238281 39.953125 Z M 58.390625 35.753906 L 26.300781 35.753906 C 23.988281 35.753906 22.101562 37.636719 22.101562 39.953125 L 22.101562 72.039062 C 22.101562 74.355469 23.988281 76.238281 26.300781 76.238281 L 58.390625 76.238281 C 60.703125 76.238281 62.585938 74.355469 62.585938 72.039062 L 62.585938 39.953125 C 62.585938 37.636719 60.703125 35.753906 58.390625 35.753906 " fill-opacity="1" fill-rule="nonzero"/></g></g></g><g clip-path="url(#a1eb4ce5a9)"><g clip-path="url(#a837e851d5)"><g clip-path="url(#fbfa18ddd6)"><path stroke-linecap="butt" transform="matrix(0.746681, 0, 0, 0.746681, 22.103401, 35.753725)" fill="none" stroke-linejoin="miter" d="M -0.00246255 14.993671 L -0.00246255 39.220665 C -0.00246255 47.507332 6.714761 54.219324 14.996197 54.219324 L 39.223191 54.219324 C 47.504627 54.219324 54.216619 47.507332 54.216619 39.220665 L 54.216619 14.993671 C 54.216619 11.017744 52.636711 7.203994 49.827405 4.394688 C 47.012868 1.58015 43.199117 0.00024268 39.223191 0.00024268 L 14.996197 0.00024268 C 6.714761 0.00024268 -0.00246255 6.712234 -0.00246255 14.993671 Z M -0.00246255 14.993671 " stroke="#ffffff" stroke-width="8" stroke-opacity="1" stroke-miterlimit="4"/></g></g></g><g fill="#ffffff" fill-opacity="1"><g transform="translate(29.147048, 56.328042)"><g><path d="M 8.765625 -3.3125 L 0.84375 0.140625 L 0.84375 -1.671875 L 6.34375 -4.046875 L 0.84375 -6.390625 L 0.84375 -8.203125 L 8.765625 -4.765625 Z M 8.765625 -3.3125 "/></g></g></g><g fill="#ffffff" fill-opacity="1"><g transform="translate(45.187316, 56.328042)"><g><path d="M 0.84375 -3.3125 L 0.84375 -4.765625 L 8.765625 -8.203125 L 8.765625 -6.390625 L 3.265625 -4.046875 L 8.765625 -1.671875 L 8.765625 0.140625 Z M 0.84375 -3.3125 "/></g></g></g><g fill="#ffffff" fill-opacity="1"><g transform="translate(36.123347, 58.366019)"><g><path d="M 11.78125 1.25 L 11.78125 4.09375 C 11.78125 6.457031 11.21875 8.113281 10.09375 9.0625 C 8.976562 10.007812 7.644531 10.484375 6.09375 10.484375 C 5.007812 10.484375 4.007812 10.28125 3.09375 9.875 C 2.1875 9.46875 1.441406 8.796875 0.859375 7.859375 C 0.285156 6.921875 0 5.695312 0 4.1875 L 0 1.25 Z M 1.59375 4.375 C 1.59375 5.851562 2.007812 6.925781 2.84375 7.59375 C 3.6875 8.257812 4.742188 8.59375 6.015625 8.59375 C 7.253906 8.59375 8.265625 8.253906 9.046875 7.578125 C 9.828125 6.910156 10.21875 5.84375 10.21875 4.375 L 10.21875 3.046875 L 1.59375 3.046875 Z M 1.59375 4.375 "/></g></g></g><g fill="#ffffff" fill-opacity="1"><g transform="translate(78.182147, 62.84577)"><g><path d="M 12.03125 0.390625 C 10.832031 0.390625 9.691406 0.210938 8.609375 -0.140625 C 7.523438 -0.503906 6.535156 -1.007812 5.640625 -1.65625 C 4.742188 -2.300781 3.960938 -3.070312 3.296875 -3.96875 C 2.640625 -4.863281 2.128906 -5.84375 1.765625 -6.90625 C 1.410156 -7.976562 1.234375 -9.109375 1.234375 -10.296875 C 1.234375 -11.492188 1.410156 -12.628906 1.765625 -13.703125 C 2.128906 -14.773438 2.640625 -15.757812 3.296875 -16.65625 C 3.960938 -17.550781 4.742188 -18.320312 5.640625 -18.96875 C 6.535156 -19.613281 7.523438 -20.113281 8.609375 -20.46875 C 9.691406 -20.832031 10.832031 -21.015625 12.03125 -21.015625 C 13.125 -21.015625 14.195312 -20.859375 15.25 -20.546875 C 16.300781 -20.242188 17.269531 -19.796875 18.15625 -19.203125 C 19.050781 -18.609375 19.820312 -17.878906 20.46875 -17.015625 C 21.113281 -16.148438 21.570312 -15.171875 21.84375 -14.078125 L 19.125 -14.078125 C 18.738281 -15.015625 18.195312 -15.816406 17.5 -16.484375 C 16.800781 -17.160156 15.984375 -17.671875 15.046875 -18.015625 C 14.109375 -18.367188 13.082031 -18.546875 11.96875 -18.546875 C 10.851562 -18.546875 9.804688 -18.34375 8.828125 -17.9375 C 7.859375 -17.539062 7.003906 -16.972656 6.265625 -16.234375 C 5.523438 -15.492188 4.945312 -14.617188 4.53125 -13.609375 C 4.125 -12.597656 3.921875 -11.492188 3.921875 -10.296875 C 3.921875 -9.085938 4.125 -7.976562 4.53125 -6.96875 C 4.945312 -5.957031 5.523438 -5.085938 6.265625 -4.359375 C 7.003906 -3.628906 7.859375 -3.066406 8.828125 -2.671875 C 9.804688 -2.273438 10.851562 -2.078125 11.96875 -2.078125 C 13.144531 -2.078125 14.179688 -2.238281 15.078125 -2.5625 C 15.972656 -2.882812 16.742188 -3.335938 17.390625 -3.921875 C 18.035156 -4.503906 18.550781 -5.175781 18.9375 -5.9375 C 19.320312 -6.707031 19.585938 -7.53125 19.734375 -8.40625 L 11.890625 -8.40625 L 11.890625 -10.828125 L 22.515625 -10.828125 C 22.515625 -9.273438 22.285156 -7.816406 21.828125 -6.453125 C 21.367188 -5.097656 20.691406 -3.90625 19.796875 -2.875 C 18.898438 -1.851562 17.800781 -1.050781 16.5 -0.46875 C 15.195312 0.101562 13.707031 0.390625 12.03125 0.390625 Z M 12.03125 0.390625 "/></g></g></g><g fill="#ffffff" fill-opacity="1"><g transform="translate(101.932338, 62.84577)"><g><path d="M 9.125 0.4375 C 8.09375 0.4375 7.144531 0.289062 6.28125 0 C 5.425781 -0.289062 4.679688 -0.742188 4.046875 -1.359375 C 3.421875 -1.972656 2.9375 -2.757812 2.59375 -3.71875 C 2.25 -4.6875 2.078125 -5.84375 2.078125 -7.1875 L 2.078125 -15.421875 L 4.65625 -15.421875 L 4.65625 -7.265625 C 4.65625 -5.523438 5.039062 -4.210938 5.8125 -3.328125 C 6.582031 -2.453125 7.675781 -2.015625 9.09375 -2.015625 C 10.507812 -2.015625 11.597656 -2.453125 12.359375 -3.328125 C 13.128906 -4.210938 13.515625 -5.523438 13.515625 -7.265625 L 13.515625 -15.421875 L 16.125 -15.421875 L 16.125 -7.1875 C 16.125 -5.84375 15.945312 -4.6875 15.59375 -3.71875 C 15.25 -2.757812 14.757812 -1.972656 14.125 -1.359375 C 13.5 -0.742188 12.757812 -0.289062 11.90625 0 C 11.050781 0.289062 10.125 0.4375 9.125 0.4375 Z M 9.125 0.4375 "/></g></g></g><g fill="#ffffff" fill-opacity="1"><g transform="translate(120.119149, 62.84577)"><g><path d="M 7.640625 0.4375 C 6.554688 0.4375 5.609375 0.289062 4.796875 0 C 3.992188 -0.28125 3.328125 -0.664062 2.796875 -1.15625 C 2.265625 -1.644531 1.863281 -2.195312 1.59375 -2.8125 C 1.320312 -3.4375 1.1875 -4.078125 1.1875 -4.734375 L 3.703125 -4.71875 C 3.710938 -4.164062 3.867188 -3.65625 4.171875 -3.1875 C 4.484375 -2.726562 4.929688 -2.359375 5.515625 -2.078125 C 6.097656 -1.804688 6.816406 -1.671875 7.671875 -1.671875 C 8.835938 -1.671875 9.71875 -1.898438 10.3125 -2.359375 C 10.90625 -2.816406 11.203125 -3.4375 11.203125 -4.21875 C 11.203125 -4.789062 11.046875 -5.238281 10.734375 -5.5625 C 10.421875 -5.894531 9.972656 -6.148438 9.390625 -6.328125 C 8.816406 -6.503906 8.125 -6.660156 7.3125 -6.796875 C 6.601562 -6.898438 5.921875 -7.050781 5.265625 -7.25 C 4.617188 -7.445312 4.039062 -7.71875 3.53125 -8.0625 C 3.03125 -8.40625 2.632812 -8.84375 2.34375 -9.375 C 2.0625 -9.90625 1.921875 -10.5625 1.921875 -11.34375 C 1.921875 -12.1875 2.125 -12.945312 2.53125 -13.625 C 2.9375 -14.3125 3.550781 -14.851562 4.375 -15.25 C 5.195312 -15.65625 6.21875 -15.859375 7.4375 -15.859375 C 8.625 -15.859375 9.660156 -15.660156 10.546875 -15.265625 C 11.441406 -14.867188 12.132812 -14.320312 12.625 -13.625 C 13.125 -12.925781 13.375 -12.128906 13.375 -11.234375 L 10.8125 -11.234375 C 10.769531 -11.972656 10.453125 -12.566406 9.859375 -13.015625 C 9.273438 -13.460938 8.46875 -13.6875 7.4375 -13.6875 C 6.769531 -13.6875 6.21875 -13.582031 5.78125 -13.375 C 5.351562 -13.164062 5.03125 -12.882812 4.8125 -12.53125 C 4.59375 -12.1875 4.484375 -11.8125 4.484375 -11.40625 C 4.484375 -10.914062 4.59375 -10.515625 4.8125 -10.203125 C 5.03125 -9.890625 5.410156 -9.632812 5.953125 -9.4375 C 6.492188 -9.25 7.242188 -9.070312 8.203125 -8.90625 C 8.898438 -8.789062 9.585938 -8.644531 10.265625 -8.46875 C 10.941406 -8.300781 11.550781 -8.054688 12.09375 -7.734375 C 12.632812 -7.410156 13.0625 -6.972656 13.375 -6.421875 C 13.6875 -5.878906 13.84375 -5.191406 13.84375 -4.359375 C 13.84375 -3.304688 13.582031 -2.421875 13.0625 -1.703125 C 12.539062 -0.992188 11.8125 -0.457031 10.875 -0.09375 C 9.945312 0.257812 8.867188 0.4375 7.640625 0.4375 Z M 7.640625 0.4375 "/></g></g></g><g fill="#ffffff" fill-opacity="1"><g transform="translate(135.02538, 62.84577)"><g><path d="M 11.296875 0 L 8.453125 0 C 7.867188 0 7.289062 -0.0703125 6.71875 -0.21875 C 6.144531 -0.375 5.625 -0.648438 5.15625 -1.046875 C 4.6875 -1.453125 4.304688 -2.03125 4.015625 -2.78125 C 3.734375 -3.539062 3.59375 -4.519531 3.59375 -5.71875 L 3.59375 -13.140625 L 0.171875 -13.140625 L 0.171875 -15.421875 L 3.59375 -15.421875 L 3.59375 -20 L 6.203125 -20.015625 L 6.203125 -15.421875 L 11.296875 -15.421875 L 11.296875 -13.140625 L 6.203125 -13.140625 L 6.203125 -5.59375 C 6.203125 -4.875 6.28125 -4.289062 6.4375 -3.84375 C 6.59375 -3.394531 6.800781 -3.050781 7.0625 -2.8125 C 7.332031 -2.582031 7.628906 -2.421875 7.953125 -2.328125 C 8.285156 -2.242188 8.625 -2.203125 8.96875 -2.203125 L 11.296875 -2.203125 Z M 11.296875 0 "/></g></g></g><g fill="#ffffff" fill-opacity="1"><g transform="translate(147.180156, 62.84577)"><g><path d="M 9.203125 0.4375 C 8.066406 0.4375 7.007812 0.226562 6.03125 -0.1875 C 5.0625 -0.601562 4.210938 -1.179688 3.484375 -1.921875 C 2.765625 -2.671875 2.203125 -3.539062 1.796875 -4.53125 C 1.390625 -5.519531 1.1875 -6.582031 1.1875 -7.71875 C 1.1875 -8.84375 1.390625 -9.894531 1.796875 -10.875 C 2.203125 -11.863281 2.765625 -12.726562 3.484375 -13.46875 C 4.203125 -14.21875 5.046875 -14.800781 6.015625 -15.21875 C 6.992188 -15.644531 8.054688 -15.859375 9.203125 -15.859375 C 10.359375 -15.859375 11.421875 -15.648438 12.390625 -15.234375 C 13.367188 -14.816406 14.222656 -14.234375 14.953125 -13.484375 C 15.679688 -12.742188 16.242188 -11.878906 16.640625 -10.890625 C 17.046875 -9.898438 17.25 -8.84375 17.25 -7.71875 C 17.25 -6.582031 17.046875 -5.519531 16.640625 -4.53125 C 16.242188 -3.539062 15.679688 -2.671875 14.953125 -1.921875 C 14.222656 -1.179688 13.367188 -0.601562 12.390625 -0.1875 C 11.421875 0.226562 10.359375 0.4375 9.203125 0.4375 Z M 9.234375 -2.015625 C 10.003906 -2.015625 10.71875 -2.15625 11.375 -2.4375 C 12.03125 -2.71875 12.601562 -3.113281 13.09375 -3.625 C 13.59375 -4.144531 13.976562 -4.75 14.25 -5.4375 C 14.519531 -6.132812 14.65625 -6.894531 14.65625 -7.71875 C 14.65625 -8.53125 14.519531 -9.28125 14.25 -9.96875 C 13.976562 -10.664062 13.59375 -11.269531 13.09375 -11.78125 C 12.601562 -12.289062 12.03125 -12.6875 11.375 -12.96875 C 10.71875 -13.257812 10.003906 -13.40625 9.234375 -13.40625 C 8.472656 -13.40625 7.757812 -13.257812 7.09375 -12.96875 C 6.4375 -12.6875 5.859375 -12.289062 5.359375 -11.78125 C 4.867188 -11.269531 4.484375 -10.664062 4.203125 -9.96875 C 3.929688 -9.28125 3.796875 -8.53125 3.796875 -7.71875 C 3.796875 -6.894531 3.929688 -6.132812 4.203125 -5.4375 C 4.484375 -4.75 4.867188 -4.144531 5.359375 -3.625 C 5.859375 -3.113281 6.4375 -2.71875 7.09375 -2.4375 C 7.757812 -2.15625 8.472656 -2.015625 9.234375 -2.015625 Z M 9.234375 -2.015625 "/></g></g></g></svg>